<svg xmlns="http://www.w3.org/2000/svg" version="1.1" xmlns:xlink="http://www.w3.org/1999/xlink" xmlns:svgjs="http://svgjs.dev/svgjs" width="100%" height="100%" viewBox="0 0 1000 600"><rect width="1000" height="600" x="0" y="0" fill="#358597"/><g><circle r="166.66666666666666" cx="325.29247538248694" cy="347.5146545774842" fill="#f4a896" transform="matrix(0.7880181758506818,0,0,0.7880181758506816,0,26.152120172941565)"/><path d="M281.10585034558346 421.6616819292749L278.2423248542417 377.7949084448908L283.9389127997833 377.7949084448908Q286.37595577113797 393.14827916442516 296.6724623251115 404.11497253552125Q306.96896887908497 415.08166590661733 322.99252641574196 415.08166590661733L322.99252641574196 415.08166590661733Q336.82274527817975 415.08166590661733 344.59081974937277 406.9480349897211Q352.38935725770773 398.8448671099668 352.38935725770773 386.5682631417676L352.38935725770773 386.5682631417676Q352.38935725770773 376.24129355065213 346.2358237550372 369.44803626800103Q340.1127532895086 362.6547789853498 327.16596250418684 356.9581910398083L327.16596250418684 356.9581910398083L317.0826972102069 352.7847549513634Q298.86580099933065 345.1080695915962 289.4222594853313 335.66452807759674Q280.0091810084739 326.2514496007393 280.0091810084739 310.2278920640823L280.0091810084739 310.2278920640823Q280.0091810084739 291.79775459321263 292.49902623666657 282.14097181921966Q305.01933450200124 272.5146520823687 324.5156782728386 272.5146520823687L324.5156782728386 272.5146520823687Q337.0359865381733 272.5146520823687 346.6927693121662 277.11457069080063L346.6927693121662 277.11457069080063Q350.6225011034756 278.63772254789734 352.1761159977142 278.63772254789734L352.1761159977142 278.63772254789734Q353.91250911480444 278.63772254789734 354.79593719192053 277.2059598022264Q355.67936526903657 275.8046600936975 356.3190890490172 273.1543758623493L356.3190890490172 273.1543758623493L361.1627119545846 273.1543758623493L363.3560506288038 311.9947482183145L357.65946268326223 311.9947482183145Q355.466124009043 297.49434253875415 347.3324930921468 288.72098784187733Q339.2293252123925 279.9476331450005 324.97262382996763 279.9476331450005L324.97262382996763 279.9476331450005Q313.33574364174905 279.9476331450005 306.4206342105301 286.22301879623876Q299.5359878164532 292.46794141033513 299.5359878164532 304.7445453785343L299.5359878164532 304.7445453785343Q299.5359878164532 315.28475622964334 305.65905828198186 321.40782669517193Q311.8125917846524 327.5613601978424 324.5156782728386 333.0447068833905L324.5156782728386 333.0447068833905L335.0558891239476 337.43138423182893Q346.6927693121662 342.45778536024795 354.4608437833592 347.51464952580886Q362.2593812916942 352.5715136913699 367.2857824201132 360.79653371969187Q372.3426465856742 369.02155374801396 372.3426465856742 380.8412121590841L372.3426465856742 380.8412121590841Q372.3426465856742 400.1547777070699 359.0607623917912 411.33471233815953Q345.8093412350501 422.51464696924904 323.2057676757355 422.51464696924904L323.2057676757355 422.51464696924904Q314.88935853598764 422.51464696924904 309.40601185043965 421.3265885207137Q303.9226651648916 420.10806703503636 297.76913166222107 417.9147283608171L297.76913166222107 417.9147283608171Q293.80893683376974 416.1783352437269 291.6155981595505 416.1783352437269L291.6155981595505 416.1783352437269Q289.2090182253378 416.1783352437269 288.02095977680233 417.70148710082356Q286.802438291125 419.2246389579203 286.58919703113145 421.6616819292749L286.58919703113145 421.6616819292749L281.10585034558346 421.6616819292749Z " fill="#358597" transform="matrix(0.7880181758506818,0,0,0.7880181758506816,0,26.152120172941565)"/><path d="M577.5080760242145 387.9137725031618L575.2924883222614 353.97285451579705L579.7000936442316 353.97285451579705Q581.5857001990853 365.85217581137476 589.5523878933418 374.3374053082159Q597.5190755875982 382.8226348050571 609.9169386857607 382.8226348050571L609.9169386857607 382.8226348050571Q620.6177558845548 382.8226348050571 626.6281267781505 376.5294229282332Q632.6620677536821 370.259781133345 632.6620677536821 360.76103811327005L632.6620677536821 360.76103811327005Q632.6620677536821 352.7707803370779 627.9009112026768 347.51465206542343Q623.1633247336072 342.2585237937691 613.1460399109474 337.85091847179876L613.1460399109474 337.85091847179876L605.3443427902406 334.62181724661195Q591.24943379271 328.6821565988232 583.9427083926523 321.37543119876545Q576.6595530745303 314.09227588064346 576.6595530745303 301.6944127824811L576.6595530745303 301.6944127824811Q576.6595530745303 287.4345132114007 586.323286668155 279.9627972377933Q596.0105903437153 272.5146513461217 611.0954427825441 272.5146513461217L611.0954427825441 272.5146513461217Q620.7827464581044 272.5146513461217 628.2544624317118 276.0737337184078L628.2544624317118 276.0737337184078Q631.2950030014133 277.25223781519134 632.4970771801325 277.25223781519134L632.4970771801325 277.25223781519134Q633.8405718504656 277.25223781519134 634.5241042266 276.1444439642148Q635.2076366027345 275.060220195174 635.7026083233835 273.0096230667707L635.7026083233835 273.0096230667707L639.4502513511551 273.0096230667707L641.1472972505233 303.0614775347499L636.739691928553 303.0614775347499Q635.0426460291848 291.84211853337104 628.7494341523609 285.05393493589804Q622.4797923574727 278.26575133842516 611.4489940115791 278.26575133842516L611.4489940115791 278.26575133842516Q602.4452227121533 278.26575133842516 597.0948141127561 283.12118821717314Q591.7679755952947 287.9530550139855 591.7679755952947 297.4517980340605L591.7679755952947 297.4517980340605Q591.7679755952947 305.6070463838023 596.5055620643643 310.344632852872Q601.2667186153697 315.10578940387734 611.0954427825441 319.3484041522979L611.0954427825441 319.3484041522979L619.250691132286 322.74249595103436Q628.2544624317118 326.6315594704199 634.2648333253077 330.5441930717411Q640.2987743008391 334.4568266730623 644.1878378202248 340.82074879569325Q648.100471421546 347.18467091832406 648.100471421546 356.3298627093641L648.100471421546 356.3298627093641Q648.100471421546 371.27329465657874 637.8239156975939 379.92351472696964Q627.5709300555774 388.57373479736054 610.0819292593103 388.57373479736054L610.0819292593103 388.57373479736054Q603.6472968908724 388.57373479736054 599.4046821424517 387.65450160186947Q595.1620673940313 386.71169832444264 590.4009108430259 385.01465242507436L590.4009108430259 385.01465242507436Q587.3368001913888 383.6711577547412 585.6397542920206 383.6711577547412L585.6397542920206 383.6711577547412Q583.7777178191027 383.6711577547412 582.8584846236115 384.84966185152473Q581.9156813461847 386.02816594830824 581.7506907726349 387.9137725031618L581.7506907726349 387.9137725031618L577.5080760242145 387.9137725031618ZM708.6755819962177 305.08850458121753Q714.803803299492 305.08850458121753 718.1036147704857 308.6475869535037Q721.4034262414795 312.2066693257899 721.4034262414795 318.4998812026138L721.4034262414795 318.4998812026138Q721.4034262414795 323.5910189007185 719.0464180479124 326.46656889687017Q716.6658397724099 329.3656889749576 711.7396926478548 329.3656889749576L711.7396926478548 329.3656889749576Q707.4970778994342 329.3656889749576 705.2107799516742 327.1501012730047Q702.9244820039142 324.93451357105164 702.9244820039142 321.37543119876545L702.9244820039142 321.37543119876545Q702.9244820039142 319.3484041522979 703.584444298113 317.981339400029Q704.2679766742475 316.63784472969587 705.6350414265163 315.10578940387734Q706.9785360968496 313.5737340780587 706.9785360968496 312.72521112837467L706.9785360968496 312.72521112837467Q706.9785360968496 311.193155802556 704.7865184768322 311.193155802556L704.7865184768322 311.193155802556Q701.5574172516455 311.193155802556 697.9040545516166 314.42225702774283Q694.2506918515877 317.65135825292964 691.5401324289857 323.1667574258764Q688.8295730063836 328.6821565988232 688.1460406302492 335.1167889672611L688.1460406302492 335.1167889672611L688.1460406302492 372.45179875336225Q688.1460406302492 376.8829741572682 688.9238533341263 378.65073030244355Q689.6780959560678 380.4420565295544 692.22366480512 381.0313085779461Q694.7692336541725 381.6205606263379 700.873884875511 381.6205606263379L700.873884875511 381.6205606263379L700.873884875511 386.5467077508929L662.0068197635912 386.5467077508929L662.0068197635912 381.6205606263379Q667.6164992642807 381.6205606263379 669.9970775397833 380.9370282502035Q672.377655815286 380.2770659560048 672.9669078636778 378.5800200566365Q673.5561599120695 376.8829741572682 673.5561599120695 372.45179875336225L673.5561599120695 372.45179875336225L673.5561599120695 321.8939730013502Q673.5561599120695 317.4863676793799 672.5426463888357 316.0250225993684Q671.5291328656018 314.5872476012926 668.6300127875145 314.5872476012926L668.6300127875145 314.5872476012926L662.8553427132754 314.5872476012926L662.8553427132754 309.49610990318786L682.8899123585948 306.1020181044513L687.6510689096001 306.1020181044513L687.6510689096001 322.05896357489996L687.8160594831498 322.05896357489996Q691.5401324289857 314.9407988303276 696.301288979991 310.0146517057726Q701.0388754490606 305.08850458121753 708.6755819962177 305.08850458121753L708.6755819962177 305.08850458121753ZM747.2126659610382 291.1821562391723Q743.1350417861672 291.1821562391723 740.4951926093722 288.54230706237723Q737.8789135145129 285.9024578855822 737.8789135145129 282.0133943661966L737.8789135145129 282.0133943661966Q737.8789135145129 277.9357701913258 740.4951926093722 275.22521076872374Q743.1350417861672 272.5146513461217 747.2126659610382 272.5146513461217L747.2126659610382 272.5146513461217Q751.4552807094586 272.5146513461217 754.000849558511 275.22521076872374Q756.5464184075635 277.9357701913258 756.5464184075635 282.0133943661966L756.5464184075635 282.0133943661966Q756.5464184075635 285.9024578855822 753.9065692307684 288.54230706237723Q751.290290135909 291.1821562391723 747.2126659610382 291.1821562391723L747.2126659610382 291.1821562391723ZM728.8751422150868 386.5467077508929L728.8751422150868 381.6205606263379Q734.4848217157763 381.6205606263379 736.865399991279 380.9370282502035Q739.222408184846 380.2770659560048 739.8352303151734 378.5800200566365Q740.4244823635652 376.8829741572682 740.4244823635652 372.45179875336225L740.4244823635652 372.45179875336225L740.4244823635652 321.8939730013502Q740.4244823635652 317.4863676793799 739.4816790861383 316.0250225993684Q738.5624458906472 314.5872476012926 735.4983352390101 314.5872476012926L735.4983352390101 314.5872476012926L729.723665164771 314.5872476012926L729.723665164771 309.49610990318786L750.2532065307396 306.1020181044513L755.0143630817448 306.1020181044513L755.0143630817448 372.45179875336225Q755.0143630817448 376.8829741572682 755.6978954578793 378.65073030244355Q756.3814278340137 380.4420565295544 758.6677257817737 381.0313085779461Q760.9540237295337 381.6205606263379 766.5637032302232 381.6205606263379L766.5637032302232 381.6205606263379L766.5637032302232 386.5467077508929L728.8751422150868 386.5467077508929ZM825.9603097081114 305.08850458121753Q832.06496092945 305.08850458121753 835.3647724004437 308.6475869535037Q838.6881539533732 312.2066693257899 838.6881539533732 318.4998812026138L838.6881539533732 318.4998812026138Q838.6881539533732 323.5910189007185 836.3075756778705 326.46656889687017Q833.9269974023679 329.3656889749576 829.0008502778129 329.3656889749576L829.0008502778129 329.3656889749576Q824.7582355293923 329.3656889749576 822.4719375816322 327.1501012730047Q820.1856396338723 324.93451357105164 820.1856396338723 321.37543119876545L820.1856396338723 321.37543119876545Q820.1856396338723 319.3484041522979 820.8691720100068 317.981339400029Q821.5291343042055 316.63784472969587 822.8961990564743 315.10578940387734Q824.2632638087432 313.5737340780587 824.2632638087432 312.72521112837467L824.2632638087432 312.72521112837467Q824.2632638087432 311.193155802556 822.0476761067902 311.193155802556L822.0476761067902 311.193155802556Q818.8185748816035 311.193155802556 815.1652121815746 314.42225702774283Q811.5354195634815 317.65135825292964 808.8012900589437 323.1667574258764Q806.0907306363416 328.6821565988232 805.4071982602072 335.1167889672611L805.4071982602072 335.1167889672611L805.4071982602072 372.45179875336225Q805.4071982602072 376.8829741572682 806.1850109640843 378.65073030244355Q806.9392535860258 380.4420565295544 809.4848224350782 381.0313085779461Q812.0303912841305 381.6205606263379 818.135042505469 381.6205606263379L818.135042505469 381.6205606263379L818.135042505469 386.5467077508929L779.2915474754849 386.5467077508929L779.2915474754849 381.6205606263379Q784.8776568942387 381.6205606263379 787.2582351697414 380.9370282502035Q789.6388134452441 380.2770659560048 790.2280654936358 378.5800200566365Q790.8173175420276 376.8829741572682 790.8173175420276 372.45179875336225L790.8173175420276 372.45179875336225L790.8173175420276 321.8939730013502Q790.8173175420276 317.4863676793799 789.8038040187937 316.0250225993684Q788.7902904955599 314.5872476012926 785.8911704174725 314.5872476012926L785.8911704174725 314.5872476012926L780.140070425169 314.5872476012926L780.140070425169 309.49610990318786L800.1510699885529 306.1020181044513L804.9122265395582 306.1020181044513L804.9122265395582 322.05896357489996L805.0772171131078 322.05896357489996Q808.8012900589437 314.9407988303276 813.562446609949 310.0146517057726Q818.3236031609543 305.08850458121753 825.9603097081114 305.08850458121753L825.9603097081114 305.08850458121753ZM920.3113476965983 379.59353357987027L921.4898517933817 383.83614832829085Q918.260750568195 385.8631753747585 914.8666587694585 387.06524955347766Q911.472566970722 388.24375365026117 906.0514481255179 388.24375365026117L906.0514481255179 388.24375365026117Q900.9603104274132 388.24375365026117 898.3204612506182 386.2167266037935Q895.7041821557588 384.1661294753902 895.1856403531741 377.37794587791734L895.1856403531741 377.37794587791734Q888.9159985582859 382.8226348050571 882.9763379104971 385.6039044734662Q877.0366772627083 388.4087442238109 869.7299518626505 388.4087442238109L869.7299518626505 388.4087442238109Q860.3961994161252 388.4087442238109 854.5508190960792 384.0954192295833Q848.6818686940973 379.75852415342 848.6818686940973 371.4382852301285L848.6818686940973 371.4382852301285Q848.6818686940973 359.5589639345509 860.7497506451604 350.74375329061024Q872.7940625142877 341.90497256473407 895.1856403531741 338.3458901924479L895.1856403531741 338.3458901924479L895.1856403531741 328.51716602527347Q895.1856403531741 319.8433758729469 891.7208383086306 315.60076112452634Q888.2324661821515 311.35814637610576 879.7472366853102 311.35814637610576L879.7472366853102 311.35814637610576Q873.8075760375215 311.35814637610576 869.0464194865161 313.5737340780587Q864.3088330174465 315.78932178001173 864.3088330174465 317.981339400029L864.3088330174465 317.981339400029Q864.3088330174465 319.1834135787482 865.911598589072 320.4561980032744Q867.5379342426332 321.7289824278006 868.4571674381244 323.0017668523267Q869.3999707155511 324.2745512768529 869.3999707155511 326.8201201259053L869.3999707155511 326.8201201259053Q869.3999707155511 330.3792024981914 867.3493735871479 332.5005098724017Q865.3223465406803 334.62181724661195 861.5982735948444 334.62181724661195L861.5982735948444 334.62181724661195Q857.6856399935232 334.62181724661195 855.3993420457633 332.2412389711094Q853.1130440980032 329.8606606956067 853.1130440980032 325.61804594718603L853.1130440980032 325.61804594718603Q853.1130440980032 320.3619176755317 856.5778461425467 315.78932178001173Q860.0662182690259 311.193155802556 867.1136727677912 308.31760580640434Q874.1375571846207 305.4184857283169 884.3198325808302 305.4184857283169L884.3198325808302 305.4184857283169Q897.2362374815774 305.4184857283169 903.340888702916 310.698184081907Q909.4455399242545 315.95431235356136 909.4455399242545 329.0121377459226L909.4455399242545 329.0121377459226L909.4455399242545 369.2462676101112Q909.4455399242545 375.8458905520988 910.8833149223302 378.3207491553442Q912.3210899204062 380.7720376766538 915.550191145593 380.7720376766538L915.550191145593 380.7720376766538Q917.6007882739962 380.7720376766538 920.3113476965983 379.59353357987027L920.3113476965983 379.59353357987027ZM863.9552817884114 367.36066105525754Q863.9552817884114 373.3003217030464 867.3493735871479 376.2701520269409Q870.7434653858844 379.23998235083525 877.2016678362579 379.23998235083525L877.2016678362579 379.23998235083525Q881.9628243872631 379.23998235083525 886.2761493814909 377.2129553043676Q890.6130444576542 375.18592825790006 895.1856403531741 371.7918364591635L895.1856403531741 371.7918364591635L895.1856403531741 343.7905791195876Q879.417255538211 347.18467091832406 871.6862686633111 352.8650606648206Q863.9552817884114 358.545450411317 863.9552817884114 367.36066105525754L863.9552817884114 367.36066105525754ZM1005.6586143856592 372.45179875336225Q1005.6586143856592 376.69441350178295 1006.3421467617936 378.4857397288938Q1007.025679137928 380.2770659560048 1009.4062574134308 380.9370282502035Q1011.7868356889334 381.6205606263379 1017.3729451076872 381.6205606263379L1017.3729451076872 381.6205606263379L1017.3729451076872 386.5467077508929L980.2029258951355 386.5467077508929L980.2029258951355 381.6205606263379Q985.6476148222754 381.6205606263379 987.8396324422928 381.0313085779461Q990.0552201442457 380.4420565295544 990.7387525203801 378.74501063018613Q991.4222848965145 377.04796473081797 991.4222848965145 372.8053499823974L991.4222848965145 372.8053499823974L991.4222848965145 331.5577065949749Q991.4222848965145 323.42602832716875 987.6039316229361 318.4056008748711Q983.7855783493575 313.40874350450906 975.6303299996156 313.40874350450906L975.6303299996156 313.40874350450906Q969.0071369756924 313.40874350450906 964.4345410801724 316.5435644019532Q959.8383751027169 319.6783852993973 955.5957603542962 325.4530553736364L955.5957603542962 325.4530553736364L955.5957603542962 372.8053499823974Q955.5957603542962 377.04796473081797 956.2792927304306 378.8157208759932Q956.9628251065651 380.60704710310404 959.178412808518 381.1255889056888Q961.3704304285353 381.6205606263379 966.6265587001898 381.6205606263379L966.6265587001898 381.6205606263379L966.6265587001898 386.5467077508929L929.480109569574 386.5467077508929L929.480109569574 381.6205606263379Q935.0662189883277 381.6205606263379 937.4467972638304 380.9370282502035Q939.827375539333 380.2770659560048 940.4166275877247 378.5800200566365Q941.0058796361164 376.8829741572682 941.0058796361164 372.45179875336225L941.0058796361164 372.45179875336225L941.0058796361164 321.8939730013502Q941.0058796361164 317.4863676793799 939.9923661128827 316.0250225993684Q938.9788525896489 314.5872476012926 936.0797325115615 314.5872476012926L936.0797325115615 314.5872476012926L930.328632519258 314.5872476012926L930.328632519258 309.49610990318786L950.3396320826419 306.1020181044513L955.1007886336471 306.1020181044513L955.1007886336471 318.6648717761634L955.2657792071968 318.6648717761634Q961.0404492814359 311.87668817869053 967.6636423053593 308.57687670769667Q974.2632652473468 305.2534951547673 982.748494744188 305.2534951547673L982.748494744188 305.2534951547673Q1005.6586143856592 305.2534951547673 1005.6586143856592 329.695670122057L1005.6586143856592 329.695670122057L1005.6586143856592 372.45179875336225ZM1097.9826253276783 305.2534951547673Q1103.4273142548182 305.2534951547673 1106.8921162993615 308.31760580640434Q1110.380488425841 311.35814637610576 1110.380488425841 316.1193029271111L1110.380488425841 316.1193029271111Q1110.380488425841 319.6783852993973 1108.518451952923 321.8939730013502Q1106.6328453980693 324.0859906213675 1103.4273142548182 324.0859906213675L1103.4273142548182 324.0859906213675Q1100.363203603181 324.0859906213675 1098.5011671302632 322.38894472199934Q1096.639130657345 320.69189882263106 1096.639130657345 318.33489062906403L1096.639130657345 318.33489062906403Q1096.639130657345 317.1328164503449 1096.9691118044445 315.95431235356136Q1097.299092951544 314.7522381748422 1097.299092951544 314.09227588064346L1097.299092951544 314.09227588064346Q1097.299092951544 313.05519227547404 1096.2855794283103 312.2066693257899Q1095.2720659050765 311.35814637610576 1093.7400105792578 311.35814637610576L1093.7400105792578 311.35814637610576Q1090.6994700095565 311.35814637610576 1086.786836408235 316.63784472969587L1086.786836408235 316.63784472969587Q1091.359432303755 322.907486524584 1091.359432303755 331.9112578240099L1091.359432303755 331.9112578240099Q1091.359432303755 345.4876250189559 1082.1199601849726 351.8515471415867Q1072.88048806619 358.21546926421763 1059.3041208712439 358.21546926421763L1059.3041208712439 358.21546926421763Q1053.1758995679697 358.21546926421763 1047.9197712963155 357.0133950854985L1047.9197712963155 357.0133950854985Q1039.7880930285091 361.4210004074688 1039.7880930285091 366.5121381055735L1039.7880930285091 366.5121381055735Q1039.7880930285091 369.5762487572106 1043.2528950730527 371.6032758036781Q1046.741267199532 373.6538729320814 1055.0615061228236 373.6538729320814L1055.0615061228236 373.6538729320814L1067.2708085655004 373.6538729320814Q1083.2277540359491 373.6538729320814 1090.6051896818137 379.0749917772855Q1097.9826253276783 384.51968070442535 1097.9826253276783 395.1969278212838L1097.9826253276783 395.1969278212838Q1097.9826253276783 408.9382855897794 1086.951826981785 415.7264691872524Q1075.9210286358914 422.5146527847253 1058.6205884951096 422.5146527847253L1058.6205884951096 422.5146527847253Q1043.1821848272457 422.5146527847253 1033.5891614794282 417.25852451307094Q1023.9961381316105 412.0023962414165 1023.9961381316105 401.49013969810767L1023.9961381316105 401.49013969810767Q1023.9961381316105 395.71546962386856 1027.3902299303468 391.7321257767403Q1030.7843217290833 387.7252118476764 1038.58601884979 384.684671277975L1038.58601884979 384.684671277975Q1033.4948811516856 382.9876253786068 1030.619331155534 379.4992532521276Q1027.7202110774463 376.0344512075841 1027.7202110774463 371.7918364591635L1027.7202110774463 371.7918364591635Q1027.7202110774463 367.1956704817079 1031.4678541052176 362.95305573328733Q1035.1919270510537 358.71044098486675 1042.3336618775616 355.15135861258057L1042.3336618775616 355.15135861258057Q1027.2252393567974 348.69315616220695 1027.2252393567974 332.07624839755965L1027.2252393567974 332.07624839755965Q1027.2252393567974 318.4998812026138 1036.8182627046149 311.87668817869053Q1046.387715970497 305.2534951547673 1059.6341020183436 305.2534951547673L1059.6341020183436 305.2534951547673Q1066.7522667629157 305.2534951547673 1073.0454786397395 307.2098119554279Q1079.3151204346277 309.1661287560885 1083.7227257565983 313.05519227547404L1083.7227257565983 313.05519227547404Q1089.6623864043868 305.2534951547673 1097.9826253276783 305.2534951547673L1097.9826253276783 305.2534951547673ZM1058.9505696422088 352.7707803370779Q1068.4493126622838 352.7707803370779 1072.4562265913478 347.3496614918738Q1076.439570438476 341.90497256473407 1076.439570438476 331.0627348743259L1076.439570438476 331.0627348743259Q1076.439570438476 321.37543119876545 1072.6212171648976 316.1193029271111Q1068.8028638913188 310.86317465545665 1059.799092591893 310.86317465545665L1059.799092591893 310.86317465545665Q1050.6303307189173 310.86317465545665 1046.741267199532 316.37857382840343Q1042.8286335982107 321.8939730013502 1042.8286335982107 332.2412389711094L1042.8286335982107 332.2412389711094Q1042.8286335982107 341.90497256473407 1046.4819962982397 347.3496614918738Q1050.1353589982684 352.7707803370779 1058.9505696422088 352.7707803370779L1058.9505696422088 352.7707803370779ZM1063.5467356196646 386.02816594830824L1047.5897901492162 386.02816594830824Q1041.9801106485265 388.24375365026117 1039.6938127007666 392.0621069238397Q1037.4075147530066 395.8804601974182 1037.4075147530066 400.1230749458389L1037.4075147530066 400.1230749458389Q1037.4075147530066 407.92477206654564 1043.7714368756374 412.5916482898083Q1050.1353589982684 417.25852451307094 1060.6476155415771 417.25852451307094L1060.6476155415771 417.25852451307094Q1071.678413887471 417.25852451307094 1078.4665974849436 412.42665771625855Q1085.2547810824167 407.59479091944627 1085.2547810824167 398.75601019357L1085.2547810824167 398.75601019357Q1085.2547810824167 392.1563872515824 1080.3286339578617 389.0922765999453Q1075.4260569152423 386.02816594830824 1063.5467356196646 386.02816594830824L1063.5467356196646 386.02816594830824Z " fill="#f4a896" transform="matrix(0.7880181758506818,0,0,0.7880181758506816,0,26.152120172941565)"/></g></svg>